<svg width="220" height="206" viewBox="0 0 220 206" fill="none" xmlns="http://www.w3.org/2000/svg">
<path id="Arrow 5" d="M142.824 65.0368L141.077 66.825L142.824 65.0368ZM199.232 204.768C200.209 205.744 201.791 205.744 202.768 204.768L218.678 188.858C219.654 187.882 219.654 186.299 218.678 185.322C217.701 184.346 216.118 184.346 215.142 185.322L201 199.464L186.858 185.322C185.882 184.346 184.299 184.346 183.322 185.322C182.346 186.299 182.346 187.882 183.322 188.858L199.232 204.768ZM1.00001 3C0.844991 5.49519 0.844537 5.49516 0.844401 5.49515C0.84478 5.49518 0.844961 5.49519 0.845717 5.49524C0.847229 5.49533 0.850007 5.49551 0.854047 5.49577C0.862126 5.49629 0.875249 5.49715 0.893363 5.49837C0.92959 5.5008 0.985781 5.50466 1.06152 5.51014C1.213 5.52109 1.44266 5.53847 1.74718 5.5637C2.35623 5.61416 3.26462 5.69601 4.44576 5.82053C6.8082 6.06959 10.2607 6.48927 14.5908 7.16979C23.253 8.53116 35.4155 10.9346 49.3815 15.0991C77.3386 23.4357 112.379 38.7863 141.077 66.825L144.571 63.2487C115.093 34.4472 79.2211 18.7794 50.8103 10.3076C36.5923 6.06794 24.2068 3.61969 15.3671 2.23042C10.9462 1.53563 7.40927 1.10525 4.96998 0.848089C3.75025 0.719498 2.8047 0.634189 2.16004 0.580775C1.83771 0.554068 1.59056 0.535332 1.42196 0.523146C1.33765 0.517053 1.27298 0.512597 1.22835 0.5096C1.20604 0.508102 1.18873 0.506968 1.17649 0.506177C1.17038 0.505782 1.16552 0.505472 1.16194 0.505245C1.16015 0.505132 1.15842 0.505023 1.15753 0.504967C1.15611 0.504878 1.15502 0.50481 1.00001 3ZM141.077 66.825C169.74 94.8299 184.112 128.861 191.312 155.975C194.909 169.523 196.707 181.311 197.605 189.702C198.054 193.897 198.278 197.24 198.389 199.525C198.445 200.668 198.473 201.546 198.486 202.133C198.493 202.427 198.497 202.649 198.498 202.794C198.499 202.867 198.5 202.921 198.5 202.955C198.5 202.972 198.5 202.985 198.5 202.992C198.5 202.996 198.5 202.999 198.5 203C198.5 203 198.5 203 198.5 203.001C198.5 203.001 198.5 203 201 203C203.5 203 203.5 202.999 203.5 202.997C203.5 202.996 203.5 202.995 203.5 202.993C203.5 202.989 203.5 202.984 203.5 202.978C203.5 202.966 203.5 202.949 203.5 202.927C203.499 202.883 203.499 202.819 203.498 202.737C203.496 202.572 203.492 202.331 203.485 202.017C203.47 201.388 203.441 200.468 203.383 199.281C203.268 196.908 203.037 193.469 202.577 189.17C201.657 180.575 199.819 168.53 196.144 154.692C188.8 127.034 174.084 92.084 144.571 63.2487L141.077 66.825Z" fill="url(#paint0_linear)"/>
<defs>
<linearGradient id="paint0_linear" x1="267.5" y1="132" x2="1.00001" y2="103" gradientUnits="userSpaceOnUse">
<stop stop-color="#B2FF75"/>
<stop offset="0.580943" stop-color="#D1ED5D"/>
</linearGradient>
</defs>
</svg>
