<svg width="182" height="183" viewBox="0 0 182 183" fill="none" xmlns="http://www.w3.org/2000/svg">
<g id="Group 98">
<path id="T" d="M95.6652 17.198C95.6532 16.49 95.5812 15.902 95.4492 15.434C95.3172 14.966 95.0832 14.618 94.7472 14.39C94.4232 14.15 93.9492 14.036 93.3252 14.048L91.7952 14.048L91.7772 23.858C91.7772 24.494 91.7592 24.968 91.7232 25.28C91.9752 25.268 92.2212 25.256 92.4612 25.244C92.7132 25.232 92.9652 25.22 93.2172 25.208V26L88.9872 26V25.406C89.4432 25.382 89.7492 25.274 89.9052 25.082C90.0732 24.89 90.1632 24.632 90.1752 24.308C90.1992 23.972 90.2112 23.6 90.2112 23.192L90.2292 14.066L88.3752 14.084C87.6192 14.084 87.0852 14.336 86.7732 14.84C86.4612 15.344 86.3052 16.13 86.3052 17.198H85.6392L85.7472 13.4L96.2412 13.4L96.3492 17.198H95.6652Z" fill="#FF2323"/>
<path id="o" d="M100.059 28.1746C99.2274 28.055 98.5005 27.7565 97.8781 27.2791C97.2574 26.7898 96.7938 26.1776 96.4873 25.4425C96.1944 24.6972 96.1111 23.8851 96.2375 23.0061C96.3724 22.0678 96.6896 21.2526 97.1892 20.5607C97.6887 19.8687 98.3078 19.3576 99.0463 19.0274C99.7865 18.6852 100.578 18.5748 101.422 18.696C102.253 18.8156 102.978 19.126 103.597 19.6271C104.218 20.1165 104.682 20.7287 104.988 21.4638C105.295 22.1989 105.385 23 105.261 23.867C105.129 24.7816 104.807 25.59 104.294 26.2921C103.794 26.9841 103.174 27.5011 102.434 27.8432C101.694 28.1854 100.902 28.2958 100.059 28.1746ZM100.304 27.4824C100.933 27.5729 101.458 27.4665 101.877 27.1631C102.297 26.8597 102.625 26.434 102.861 25.8861C103.109 25.3398 103.279 24.752 103.369 24.1224C103.446 23.5879 103.468 23.0576 103.434 22.5315C103.414 21.9952 103.327 21.5038 103.173 21.0574C103.021 20.599 102.791 20.2204 102.482 19.9214C102.185 19.6242 101.799 19.4414 101.324 19.3731C100.707 19.2843 100.176 19.3899 99.733 19.6898C99.2898 19.9898 98.9322 20.4112 98.6602 20.954C98.4 21.4986 98.223 22.0975 98.1291 22.7507C98.0232 23.4872 98.0234 24.2025 98.1297 24.8967C98.2377 25.579 98.4697 26.1579 98.8256 26.6334C99.1816 27.1089 99.6743 27.3919 100.304 27.4824Z" fill="#FF2323"/>
<path id="d" d="M108.681 30.0292C107.979 29.823 107.396 29.4644 106.933 28.9533C106.474 28.4307 106.174 27.7922 106.032 27.0379C105.903 26.2869 105.968 25.4682 106.228 24.5816C106.506 23.6375 106.941 22.8585 107.534 22.2447C108.127 21.6309 108.818 21.2148 109.607 20.9963C110.408 20.7813 111.235 20.7989 112.087 21.0491C112.467 21.1606 112.826 21.3223 113.164 21.5341C113.517 21.7378 113.784 21.9351 113.966 22.126L114.66 19.7599C114.714 19.5756 114.765 19.4029 114.813 19.2417C114.875 19.0724 114.951 18.876 115.042 18.6525C114.831 18.6031 114.621 18.5538 114.41 18.5045C114.211 18.4585 114.006 18.4108 113.795 18.3615L114.008 17.6361C114.515 17.7849 114.913 17.8768 115.203 17.9119C115.493 17.947 115.717 17.9503 115.875 17.9217C116.045 17.8966 116.183 17.8556 116.287 17.7986L116.788 17.9457L113.496 29.1545C113.442 29.3387 113.383 29.5213 113.317 29.7021C113.251 29.8829 113.173 30.0851 113.083 30.3086C113.293 30.358 113.498 30.4056 113.697 30.4516C113.908 30.5009 114.118 30.5503 114.329 30.5996L114.116 31.325L111.646 30.5998C111.68 30.272 111.728 29.9608 111.789 29.6662C111.362 29.9285 110.88 30.0997 110.344 30.1799C109.811 30.2485 109.257 30.1983 108.681 30.0292ZM109.551 29.3655C109.931 29.4771 110.343 29.4793 110.787 29.3721C111.243 29.2683 111.645 29.0924 111.993 28.8443C112.022 28.7028 112.059 28.5572 112.102 28.4075C112.15 28.2463 112.201 28.0736 112.255 27.8894L113.732 22.9204C113.517 22.632 113.256 22.3928 112.949 22.2026C112.657 22.0043 112.338 21.8545 111.993 21.7531C111.417 21.584 110.867 21.6039 110.343 21.8127C109.819 22.0215 109.36 22.3932 108.965 22.9277C108.571 23.4622 108.267 24.1358 108.053 24.9485C107.87 25.6576 107.795 26.3172 107.828 26.9274C107.873 27.5409 108.033 28.063 108.306 28.4935C108.595 28.916 109.01 29.2066 109.551 29.3655Z" fill="#FF2323"/>
<path id="a" d="M119.477 33.8863C119.529 33.6858 119.582 33.512 119.636 33.3652C119.69 33.2183 119.741 33.0634 119.789 32.9006C119.248 33.1023 118.71 33.2126 118.173 33.2315C117.653 33.2445 117.153 33.1413 116.672 32.9219C115.843 32.5431 115.311 32.0759 115.076 31.5203C114.847 30.9538 114.857 30.3977 115.106 29.8519C115.335 29.3498 115.685 28.9884 116.155 28.7678C116.641 28.5412 117.182 28.4255 117.778 28.4206C118.39 28.4097 119.01 28.4818 119.638 28.6369C120.283 28.786 120.875 28.9906 121.416 29.2508L121.88 28.2357C122.054 27.8536 122.186 27.4784 122.275 27.1101C122.364 26.7419 122.349 26.3987 122.231 26.0807C122.112 25.7627 121.815 25.4885 121.34 25.2583C121.028 25.1028 120.673 25.0133 120.275 24.9897C119.888 24.9712 119.545 25.0853 119.248 25.332C119.295 25.4593 119.303 25.5879 119.27 25.7179C119.253 25.842 119.222 25.9532 119.177 26.0514C119.117 26.1824 118.993 26.3103 118.804 26.4351C118.62 26.549 118.394 26.5382 118.126 26.4026C117.897 26.298 117.757 26.1418 117.707 25.9341C117.661 25.7156 117.688 25.4971 117.788 25.2788C117.958 24.9077 118.246 24.6371 118.654 24.467C119.072 24.3019 119.567 24.2441 120.138 24.2938C120.709 24.3435 121.305 24.5104 121.927 24.7945C122.844 25.2133 123.409 25.768 123.621 26.4586C123.838 27.1382 123.702 27.9995 123.213 29.0425C122.934 29.6537 122.647 30.268 122.352 30.8852C122.072 31.4964 121.793 32.1077 121.514 32.719C121.434 32.8936 121.349 33.0658 121.258 33.2355C121.168 33.4051 121.062 33.5941 120.94 33.8025C121.142 33.8813 121.338 33.9576 121.528 34.0314C121.73 34.1102 121.931 34.1891 122.133 34.2679L121.819 34.9556L119.477 33.8863ZM121.162 29.8075C120.786 29.6489 120.37 29.5186 119.916 29.4165C119.477 29.3084 119.045 29.2565 118.621 29.2607C118.208 29.2699 117.83 29.3611 117.487 29.5343C117.16 29.7016 116.915 29.9787 116.751 30.3658C116.589 30.7796 116.58 31.1451 116.725 31.4621C116.887 31.7733 117.137 32.0061 117.475 32.1606C117.923 32.365 118.347 32.4601 118.75 32.4459C119.168 32.4258 119.61 32.3377 120.078 32.1816C120.121 32.0566 120.176 31.9231 120.241 31.7812C120.305 31.6393 120.373 31.4919 120.442 31.3391C120.467 31.2845 120.547 31.1099 120.682 30.8152C120.827 30.5254 120.987 30.1895 121.162 29.8075Z" fill="#FF2323"/>
<path id="y" d="M121.179 40.3556C120.866 40.1545 120.647 39.9068 120.522 39.6127C120.397 39.3185 120.435 39.015 120.636 38.702C120.753 38.5203 120.921 38.3927 121.139 38.3191C121.358 38.2455 121.563 38.2704 121.755 38.3936C122.003 38.5392 122.116 38.7188 122.093 38.9322C122.08 39.1521 122.035 39.3226 121.957 39.4438C121.938 39.474 121.918 39.5043 121.899 39.5346C121.873 39.575 121.842 39.6121 121.806 39.646C121.823 39.6857 121.872 39.7314 121.953 39.7834C122.074 39.8612 122.238 39.8951 122.444 39.8849C122.65 39.8748 122.87 39.8095 123.105 39.6891C123.379 39.5513 123.744 39.3155 124.201 38.9816C124.668 38.6542 125.211 38.254 125.829 37.7809L126.717 31.2052C126.818 30.4712 126.915 29.8987 127.007 29.4877C127.111 29.0832 127.194 28.7872 127.257 28.5997L126.511 28.1629L126.91 27.5421L130.044 29.5565L129.752 30.0108L129.692 29.9719C129.248 29.7297 128.912 29.742 128.684 30.0088C128.462 30.2655 128.299 30.7742 128.195 31.5348L127.524 36.4742C128.172 35.9774 128.803 35.4841 129.417 34.9944C130.038 34.4947 130.655 34 131.269 33.5104C131.493 33.3402 131.719 33.1649 131.949 32.9846C132.196 32.8007 132.418 32.6439 132.616 32.5141C132.83 32.3807 132.988 32.3114 133.091 32.3064L132.008 31.6955L132.407 31.0746L134.784 32.6025L134.492 33.0567C134.028 32.958 133.593 33.0136 133.187 33.2235C132.797 33.4297 132.341 33.7287 131.819 34.1202L126.53 38.1886C125.682 38.8419 124.944 39.3803 124.315 39.8036C123.68 40.237 123.113 40.5078 122.616 40.616C122.112 40.7343 121.633 40.6475 121.179 40.3556Z" fill="#FF2323"/>
<path id="&#39;" d="M138.25 35.803L140.78 32.6361L141.922 33.6263L139.148 36.581L138.25 35.803Z" fill="#FF2323"/>
<path id="s" d="M139.357 49.7556C138.964 49.3021 138.678 48.8436 138.499 48.3798C138.31 47.924 138.195 47.5159 138.152 47.1556L137.723 47.6226L137.228 47.0512L139.497 44.9422L139.863 45.3639C139.507 45.7042 139.261 46.0992 139.127 46.549C139.002 46.9909 138.988 47.4323 139.084 47.873C139.18 48.3137 139.377 48.7064 139.676 49.051C139.88 49.2868 140.117 49.4866 140.386 49.6505C140.664 49.8065 140.947 49.8948 141.234 49.9154C141.531 49.9281 141.802 49.8284 142.047 49.6162C142.301 49.3961 142.443 49.1383 142.472 48.8427C142.519 48.5483 142.5 48.2236 142.414 47.8688C142.329 47.5139 142.219 47.1487 142.084 46.7733C141.915 46.2848 141.755 45.7884 141.604 45.2842C141.47 44.7812 141.437 44.294 141.504 43.8224C141.581 43.343 141.846 42.9069 142.3 42.5139C142.49 42.3489 142.73 42.2044 143.02 42.0805C143.309 41.9566 143.629 41.8944 143.977 41.8938C144.335 41.8854 144.707 41.9758 145.094 42.1651C145.489 42.3465 145.887 42.6684 146.288 43.1309C146.5 43.3758 146.695 43.6832 146.873 44.0532C147.05 44.4232 147.148 44.847 147.165 45.3246L147.658 44.8495L148.153 45.4209L145.772 47.4837L145.395 47.0484C145.697 46.7552 145.938 46.4194 146.118 46.0409C146.307 45.6546 146.391 45.2566 146.369 44.8467C146.357 44.4289 146.181 44.0251 145.843 43.6351C145.482 43.2179 145.095 42.9818 144.682 42.9268C144.269 42.8717 143.926 42.9621 143.654 43.1978C143.373 43.4414 143.212 43.7319 143.171 44.0692C143.147 44.4078 143.188 44.7765 143.296 45.1756C143.404 45.5746 143.531 45.9878 143.68 46.4152C143.833 46.8856 143.965 47.3587 144.076 47.8345C144.186 48.3102 144.2 48.7664 144.118 49.2029C144.045 49.6315 143.804 50.0226 143.396 50.3762C142.943 50.7691 142.464 50.9774 141.961 51.0009C141.465 51.0335 140.992 50.9274 140.542 50.6825C140.09 50.4545 139.695 50.1455 139.357 49.7556Z" fill="#FF2323"/>
<path id="s_2" d="M149.086 65.0599C148.837 64.5141 148.691 63.9934 148.65 63.4979C148.597 63.0074 148.601 62.5833 148.662 62.2257L148.119 62.5529L147.805 61.8652L150.576 60.4809L150.808 60.9884C150.371 61.2147 150.024 61.5246 149.769 61.9184C149.524 62.3071 149.386 62.7265 149.354 63.1764C149.322 63.6263 149.4 64.0587 149.59 64.4735C149.719 64.7573 149.89 65.0157 150.102 65.2487C150.325 65.4768 150.572 65.6412 150.842 65.742C151.123 65.8378 151.411 65.8185 151.706 65.6839C152.012 65.5443 152.22 65.3368 152.332 65.0615C152.46 64.7922 152.532 64.4752 152.551 64.1107C152.569 63.7462 152.566 63.3649 152.543 62.9667C152.518 62.4503 152.504 61.9289 152.501 61.4026C152.514 60.8821 152.62 60.4053 152.817 59.9719C153.026 59.5336 153.404 59.1898 153.949 58.9405C154.179 58.8358 154.45 58.7648 154.762 58.7275C155.075 58.6902 155.399 58.7205 155.734 58.8182C156.08 58.9109 156.411 59.1025 156.728 59.3929C157.057 59.6784 157.348 60.0994 157.602 60.6561C157.737 60.9508 157.837 61.3007 157.903 61.7058C157.97 62.1109 157.944 62.5449 157.825 63.008L158.432 62.6911L158.747 63.3787L155.881 64.6873L155.642 64.1634C156.014 63.9671 156.34 63.7127 156.619 63.4004C156.91 63.0831 157.102 62.7247 157.197 62.3253C157.302 61.9209 157.248 61.484 157.034 61.0147C156.804 60.5125 156.499 60.1769 156.119 60.0078C155.738 59.8386 155.384 59.8288 155.057 59.9784C154.718 60.1329 154.482 60.3662 154.347 60.6783C154.229 60.9963 154.165 61.3619 154.155 61.775C154.146 62.1882 154.152 62.6207 154.174 63.0725C154.189 63.5671 154.182 64.0582 154.154 64.5459C154.126 65.0335 154.012 65.4752 153.81 65.8708C153.619 66.2615 153.278 66.5689 152.786 66.7933C152.241 67.0425 151.723 67.1075 151.233 66.9882C150.748 66.8798 150.324 66.6447 149.961 66.2828C149.592 65.9369 149.3 65.5292 149.086 65.0599Z" fill="#FF2323"/>
<path id="e" d="M152.207 73.5487C151.974 72.7542 151.947 71.9805 152.126 71.2275C152.32 70.4827 152.703 69.8263 153.274 69.2584C153.856 68.6871 154.614 68.2646 155.547 67.9907C156.353 67.7541 157.159 67.7111 157.966 67.8618C158.777 68.024 159.491 68.3707 160.11 68.9019C160.74 69.4297 161.182 70.1254 161.436 70.989C161.625 71.6337 161.659 72.2615 161.539 72.8723C161.418 73.4831 161.121 74.0267 160.648 74.5033C160.178 74.9913 159.512 75.3621 158.648 75.6157L156.76 69.5668C155.432 69.944 154.431 70.4755 153.757 71.1612C153.095 71.8435 152.912 72.6913 153.21 73.7045C153.314 74.0615 153.484 74.4056 153.719 74.7368C153.957 75.0796 154.233 75.3801 154.547 75.6382C154.86 75.8964 155.178 76.0844 155.5 76.2024L155.276 76.7183C154.702 76.5495 154.206 76.2885 153.79 75.9355C153.373 75.5825 153.034 75.1943 152.772 74.7709C152.511 74.3476 152.322 73.9401 152.207 73.5487ZM157.5 69.4056L158.793 73.8097C159.208 73.688 159.587 73.508 159.929 73.2698C160.287 73.0397 160.546 72.751 160.707 72.4036C160.879 72.0529 160.899 71.6531 160.767 71.204C160.571 70.5362 160.206 70.0369 159.671 69.7062C159.151 69.3837 158.427 69.2834 157.5 69.4056Z" fill="#FF2323"/>
<path id="r" d="M154.506 79.4347C154.559 79.8029 154.685 80.0455 154.884 80.1624C155.094 80.2776 155.362 80.324 155.686 80.3017C156.022 80.2776 156.404 80.2348 156.831 80.1734L160.893 79.5893C161.084 79.562 161.274 79.5347 161.464 79.5073C161.655 79.4919 161.855 79.4875 162.062 79.4941C162.019 79.282 161.977 79.0699 161.934 78.8578C161.905 78.6559 161.869 78.4488 161.827 78.2368L162.557 78.1317L162.636 78.684C162.71 79.1948 162.808 79.5384 162.93 79.7147C163.066 79.9013 163.203 80.0514 163.34 80.1649L163.415 80.6816C163.228 80.7327 162.993 80.7847 162.71 80.8375C162.438 80.8887 162.089 80.951 161.664 81.0243C161.986 81.1598 162.312 81.3614 162.642 81.6293C162.971 81.8971 163.258 82.2074 163.503 82.5602C163.749 82.9248 163.903 83.321 163.965 83.7486C164.012 84.0811 163.965 84.385 163.823 84.66C163.681 84.9351 163.414 85.1008 163.022 85.1571C162.867 85.1793 162.673 85.1345 162.438 85.0227C162.206 84.9228 162.072 84.7117 162.038 84.3892C162.013 84.1262 162.084 83.9038 162.251 83.7221C162.431 83.5387 162.654 83.446 162.921 83.444C162.88 82.9893 162.642 82.5567 162.207 82.1464C161.772 81.7361 161.241 81.4184 160.615 81.1933L156.235 81.8413C155.997 81.8754 155.782 81.9002 155.591 81.9157C155.412 81.9413 155.22 81.9508 155.013 81.9442C155.052 82.1325 155.084 82.3158 155.11 82.4939C155.149 82.6823 155.188 82.8706 155.228 83.059L154.497 83.164L153.972 79.5115L154.506 79.4347Z" fill="#FF2323"/>
<path id="i" d="M156.54 89.2608C156.54 89.6328 156.63 89.8908 156.81 90.0348C157.002 90.1788 157.26 90.2628 157.584 90.2868C157.92 90.3108 158.304 90.3228 158.736 90.3228H162.84C163.032 90.3228 163.212 90.3288 163.38 90.3408C163.56 90.3528 163.77 90.3708 164.01 90.3948C163.998 90.1788 163.986 89.9628 163.974 89.7468C163.962 89.5428 163.95 89.3328 163.938 89.1168H164.694C164.694 89.6448 164.718 90.0528 164.766 90.3408C164.814 90.6288 164.874 90.8448 164.946 90.9888C165.018 91.1448 165.096 91.2648 165.18 91.3488V91.8708H157.908C157.668 91.8708 157.452 91.8648 157.26 91.8528C157.08 91.8528 156.888 91.8348 156.684 91.7988C156.696 91.9908 156.702 92.1768 156.702 92.3568C156.714 92.5488 156.726 92.7408 156.738 92.9328H156V89.2608H156.54ZM166.962 91.0068C166.962 90.7548 167.064 90.5328 167.268 90.3408C167.472 90.1488 167.724 90.0528 168.024 90.0528C168.324 90.0528 168.576 90.1488 168.78 90.3408C168.996 90.5448 169.104 90.7728 169.104 91.0248C169.104 91.3008 168.996 91.5288 168.78 91.7088C168.576 91.9008 168.324 91.9968 168.024 91.9968C167.724 91.9968 167.472 91.8948 167.268 91.6908C167.064 91.4988 166.962 91.2708 166.962 91.0068Z" fill="#FF2323"/>
<path id="f" d="M163.725 101.029C165.043 101.218 166.049 101.605 166.74 102.19C167.431 102.786 167.691 103.672 167.522 104.848C167.484 105.109 167.398 105.376 167.262 105.647C167.136 105.932 166.957 106.167 166.724 106.352C166.503 106.538 166.238 106.609 165.93 106.565C165.704 106.532 165.523 106.44 165.388 106.287C165.25 106.146 165.199 105.957 165.233 105.719C165.262 105.432 165.374 105.242 165.569 105.149C165.775 105.07 165.943 105.039 166.073 105.058C166.145 105.068 166.215 105.084 166.285 105.107C166.354 105.129 166.428 105.164 166.506 105.211C166.625 105.143 166.719 105.036 166.789 104.888C166.857 104.752 166.9 104.619 166.919 104.489C166.972 104.12 166.906 103.82 166.721 103.587C166.537 103.355 166.29 103.174 165.981 103.044C165.672 102.915 165.346 102.826 165.001 102.776L163.13 102.507L162.785 104.912L162.09 104.813L162.382 102.4L156.108 101.516C155.871 101.482 155.658 101.445 155.469 101.406C155.291 101.38 155.104 101.335 154.907 101.27C154.891 101.462 154.871 101.647 154.845 101.825C154.83 102.017 154.814 102.209 154.799 102.4L154.068 102.295L154.591 98.6607L155.125 98.7376C155.073 99.1058 155.125 99.374 155.283 99.5421C155.452 99.712 155.696 99.8319 156.013 99.9017C156.342 99.9733 156.72 100.04 157.148 100.101L162.585 100.865L162.759 99.3987L163.561 99.514L163.351 100.975L163.725 101.029Z" fill="#FF2323"/>
<path id="i_2" d="M150.43 116.468C150.276 116.807 150.25 117.079 150.354 117.284C150.469 117.495 150.669 117.679 150.954 117.835C151.249 117.997 151.594 118.167 151.986 118.346L155.72 120.051C155.894 120.131 156.056 120.211 156.203 120.292C156.362 120.378 156.546 120.481 156.754 120.603C156.833 120.401 156.912 120.2 156.99 119.998C157.064 119.808 157.141 119.612 157.219 119.41L157.907 119.724C157.688 120.205 157.54 120.586 157.464 120.868C157.388 121.15 157.353 121.371 157.359 121.532C157.359 121.704 157.38 121.845 157.422 121.957L157.205 122.431L150.59 119.411C150.372 119.311 150.178 119.216 150.008 119.125C149.845 119.05 149.677 118.954 149.507 118.837C149.438 119.016 149.366 119.188 149.291 119.352C149.223 119.531 149.154 119.711 149.085 119.891L148.414 119.584L149.939 116.244L150.43 116.468ZM159.185 122.386C159.29 122.157 159.475 121.997 159.74 121.907C160.005 121.817 160.274 121.835 160.547 121.959C160.82 122.084 161.01 122.276 161.115 122.535C161.227 122.81 161.231 123.063 161.126 123.292C161.011 123.543 160.818 123.706 160.547 123.78C160.282 123.869 160.013 123.852 159.74 123.727C159.467 123.603 159.28 123.405 159.179 123.135C159.073 122.876 159.075 122.626 159.185 122.386Z" fill="#FF2323"/>
<path id="s_3" d="M144.427 125.95C144.751 125.446 145.111 125.042 145.505 124.739C145.889 124.43 146.248 124.204 146.582 124.062L146.013 123.782L146.422 123.146L149.085 124.729L148.783 125.198C148.356 124.952 147.908 124.828 147.439 124.826C146.98 124.831 146.552 124.941 146.156 125.157C145.76 125.374 145.439 125.674 145.193 126.057C145.024 126.32 144.899 126.603 144.817 126.908C144.746 127.218 144.741 127.515 144.802 127.797C144.874 128.085 145.046 128.317 145.318 128.492C145.601 128.674 145.888 128.737 146.18 128.682C146.476 128.644 146.782 128.534 147.099 128.352C147.415 128.17 147.734 127.962 148.057 127.727C148.478 127.427 148.909 127.133 149.35 126.846C149.795 126.576 150.253 126.407 150.725 126.339C151.206 126.278 151.699 126.409 152.204 126.733C152.416 126.87 152.622 127.059 152.823 127.302C153.023 127.545 153.173 127.834 153.272 128.168C153.381 128.509 153.399 128.892 153.326 129.316C153.263 129.746 153.067 130.219 152.736 130.734C152.561 131.006 152.321 131.28 152.016 131.555C151.711 131.83 151.331 132.042 150.878 132.193L151.473 132.533L151.064 133.169L148.414 131.466L148.726 130.981C149.092 131.188 149.482 131.325 149.896 131.391C150.32 131.464 150.725 131.432 151.113 131.295C151.51 131.166 151.848 130.884 152.127 130.45C152.425 129.985 152.543 129.547 152.479 129.135C152.416 128.724 152.233 128.421 151.93 128.226C151.617 128.025 151.293 127.952 150.957 128.008C150.626 128.08 150.284 128.224 149.931 128.439C149.579 128.655 149.218 128.894 148.85 129.157C148.442 129.436 148.025 129.696 147.6 129.936C147.174 130.177 146.741 130.319 146.299 130.363C145.867 130.413 145.424 130.293 144.969 130.001C144.465 129.676 144.13 129.276 143.966 128.799C143.795 128.333 143.763 127.849 143.871 127.348C143.963 126.85 144.148 126.385 144.427 125.95Z" fill="#FF2323"/>
<path id="L" d="M137.751 135.146L138.14 135.595C137.811 135.912 137.642 136.193 137.633 136.439C137.632 136.694 137.733 136.948 137.936 137.201C138.138 137.471 138.377 137.764 138.652 138.082L143.744 143.958C144.074 144.339 144.343 144.678 144.552 144.973C144.707 144.823 144.862 144.672 145.018 144.522C145.173 144.371 145.329 144.221 145.484 144.07L146.003 144.669L142.942 147.321L142.553 146.872C142.881 146.572 143.05 146.291 143.06 146.028C143.061 145.773 142.965 145.515 142.771 145.254C142.567 145.001 142.324 144.712 142.042 144.385L136.985 138.549C136.576 138.078 136.283 137.712 136.106 137.453L133.598 139.698C133.034 140.202 132.761 140.757 132.777 141.362C132.784 141.975 133.133 142.681 133.825 143.479L133.362 143.879L131.004 140.993L137.751 135.146Z" fill="#FF2323"/>
<path id="o_2" d="M125.453 144.833C126.159 144.378 126.904 144.128 127.687 144.081C128.477 144.045 129.228 144.204 129.941 144.559C130.651 144.93 131.245 145.489 131.725 146.236C132.238 147.034 132.532 147.857 132.608 148.708C132.683 149.558 132.55 150.349 132.208 151.083C131.873 151.826 131.347 152.428 130.63 152.888C129.923 153.343 129.172 153.583 128.376 153.609C127.586 153.646 126.835 153.487 126.122 153.132C125.409 152.777 124.816 152.232 124.342 151.495C123.843 150.717 123.557 149.895 123.485 149.029C123.409 148.179 123.539 147.382 123.875 146.638C124.21 145.895 124.736 145.293 125.453 144.833ZM125.721 145.516C125.186 145.86 124.859 146.284 124.741 146.788C124.623 147.292 124.653 147.828 124.834 148.397C125.004 148.973 125.261 149.528 125.605 150.063C125.896 150.517 126.227 150.932 126.597 151.308C126.963 151.7 127.351 152.014 127.76 152.251C128.175 152.498 128.597 152.633 129.026 152.657C129.445 152.687 129.856 152.573 130.26 152.313C130.785 151.976 131.117 151.549 131.255 151.032C131.394 150.515 131.388 149.962 131.238 149.374C131.078 148.792 130.82 148.223 130.463 147.668C130.061 147.042 129.592 146.502 129.057 146.047C128.529 145.602 127.974 145.316 127.394 145.19C126.814 145.063 126.256 145.172 125.721 145.516Z" fill="#FF2323"/>
<path id="r_2" d="M120.218 148.848C119.88 149.002 119.682 149.191 119.626 149.415C119.575 149.649 119.606 149.919 119.719 150.223C119.836 150.539 119.985 150.893 120.164 151.286L121.869 155.019C121.949 155.194 122.029 155.369 122.108 155.543C122.177 155.723 122.238 155.913 122.29 156.114C122.481 156.013 122.673 155.912 122.864 155.812C123.05 155.727 123.238 155.634 123.43 155.534L123.736 156.205L123.229 156.437C122.759 156.651 122.457 156.842 122.323 157.009C122.182 157.192 122.076 157.365 122.006 157.529L121.531 157.746C121.43 157.581 121.314 157.371 121.183 157.114C121.058 156.868 120.9 156.551 120.709 156.163C120.67 156.51 120.568 156.88 120.404 157.271C120.24 157.663 120.023 158.026 119.754 158.36C119.473 158.699 119.137 158.959 118.744 159.138C118.438 159.278 118.133 159.318 117.829 159.259C117.525 159.2 117.291 158.99 117.126 158.63C117.062 158.488 117.05 158.289 117.091 158.033C117.121 157.781 117.286 157.594 117.586 157.47C117.831 157.371 118.065 157.377 118.286 157.487C118.513 157.608 118.665 157.795 118.742 158.051C119.166 157.883 119.514 157.533 119.786 157C120.057 156.467 120.212 155.869 120.252 155.204L118.396 151.184C118.296 150.965 118.212 150.766 118.143 150.587C118.068 150.423 118.005 150.241 117.953 150.04C117.783 150.131 117.617 150.214 117.453 150.289C117.283 150.379 117.113 150.47 116.944 150.561L116.637 149.889L119.994 148.356L120.218 148.848Z" fill="#FF2323"/>
<path id="a_2" d="M107.036 153.232C107.128 153.418 107.202 153.584 107.258 153.73C107.313 153.877 107.376 154.027 107.446 154.181C107.723 153.675 108.058 153.239 108.451 152.873C108.835 152.523 109.281 152.273 109.788 152.124C110.663 151.867 111.371 151.872 111.912 152.139C112.456 152.417 112.813 152.843 112.982 153.419C113.137 153.949 113.11 154.451 112.899 154.925C112.68 155.415 112.347 155.857 111.9 156.251C111.445 156.659 110.929 157.011 110.352 157.305C109.768 157.614 109.186 157.848 108.607 158.005L108.921 159.076C109.04 159.479 109.186 159.849 109.36 160.186C109.533 160.522 109.769 160.772 110.067 160.935C110.365 161.097 110.769 161.11 111.279 160.973C111.616 160.886 111.943 160.721 112.259 160.478C112.564 160.239 112.748 159.928 112.811 159.547C112.692 159.482 112.603 159.39 112.542 159.27C112.474 159.165 112.425 159.06 112.394 158.957C112.354 158.819 112.364 158.641 112.425 158.423C112.489 158.216 112.667 158.076 112.958 158.003C113.2 157.932 113.408 157.959 113.582 158.083C113.759 158.218 113.882 158.401 113.95 158.631C114.065 159.023 114.024 159.416 113.827 159.812C113.619 160.211 113.283 160.578 112.819 160.914C112.355 161.251 111.795 161.515 111.139 161.708C110.171 161.992 109.381 161.943 108.769 161.56C108.159 161.188 107.698 160.448 107.385 159.34C107.196 158.695 107.011 158.043 106.829 157.383C106.64 156.738 106.451 156.093 106.261 155.449C106.207 155.264 106.159 155.078 106.116 154.891C106.074 154.703 106.03 154.491 105.986 154.254C105.782 154.326 105.584 154.397 105.391 154.466C105.187 154.538 104.984 154.611 104.78 154.683L104.567 153.958L107.036 153.232ZM108.434 157.418C108.822 157.292 109.222 157.118 109.632 156.898C110.035 156.692 110.395 156.449 110.712 156.168C111.019 155.89 111.245 155.574 111.39 155.218C111.528 154.878 111.532 154.508 111.402 154.108C111.254 153.689 111.021 153.407 110.704 153.263C110.378 153.133 110.037 153.121 109.68 153.226C109.208 153.364 108.824 153.57 108.529 153.845C108.227 154.134 107.95 154.49 107.699 154.914C107.748 155.037 107.794 155.174 107.838 155.323C107.882 155.473 107.928 155.628 107.975 155.79C107.992 155.847 108.046 156.031 108.137 156.342C108.217 156.657 108.316 157.015 108.434 157.418Z" fill="#FF2323"/>
<path id="." d="M100.086 154.3C100.359 154.261 100.618 154.333 100.863 154.516C101.097 154.712 101.237 154.971 101.283 155.292C101.329 155.613 101.262 155.901 101.08 156.158C100.899 156.414 100.672 156.562 100.399 156.601C100.102 156.644 99.8419 156.566 99.6194 156.368C99.385 156.171 99.2448 155.912 99.1987 155.592C99.1526 155.271 99.2202 154.982 99.4015 154.726C99.5846 154.481 99.8127 154.339 100.086 154.3Z" fill="#FF2323"/>
<path id="T_2" d="M86.3348 164.802C86.3468 165.51 86.4188 166.098 86.5508 166.566C86.6828 167.034 86.9168 167.382 87.2528 167.61C87.5768 167.85 88.0508 167.964 88.6748 167.952H90.2048L90.2228 158.142C90.2228 157.506 90.2408 157.032 90.2768 156.72C90.0248 156.732 89.7788 156.744 89.5388 156.756C89.2868 156.768 89.0348 156.78 88.7828 156.792V156H93.0128V156.594C92.5568 156.618 92.2508 156.726 92.0948 156.918C91.9268 157.11 91.8368 157.368 91.8248 157.692C91.8008 158.028 91.7888 158.4 91.7888 158.808L91.7708 167.934L93.6248 167.916C94.3808 167.916 94.9148 167.664 95.2268 167.16C95.5388 166.656 95.6948 165.87 95.6948 164.802H96.3608L96.2528 168.6H85.7588L85.6508 164.802H86.3348Z" fill="#FF2323"/>
<path id="o_3" d="M81.9412 154.304C82.7726 154.424 83.4995 154.722 84.1219 155.2C84.7426 155.689 85.2062 156.301 85.5127 157.036C85.8056 157.781 85.8889 158.594 85.7625 159.473C85.6276 160.411 85.3104 161.226 84.8108 161.918C84.3113 162.61 83.6922 163.121 82.9537 163.451C82.2135 163.793 81.4217 163.904 80.5784 163.783C79.7469 163.663 79.0217 163.353 78.4027 162.851C77.782 162.362 77.3185 161.75 77.012 161.015C76.7054 160.28 76.6145 159.479 76.7392 158.612C76.8707 157.697 77.193 156.889 77.7062 156.187C78.2057 155.495 78.8256 154.978 79.5658 154.635C80.3061 154.293 81.0978 154.183 81.9412 154.304ZM81.6962 154.996C81.0666 154.906 80.5422 155.012 80.1227 155.316C79.7033 155.619 79.3753 156.045 79.139 156.593C78.8907 157.139 78.7213 157.727 78.6308 158.356C78.5539 158.891 78.5323 159.421 78.5657 159.947C78.5856 160.483 78.6726 160.975 78.8266 161.421C78.9789 161.88 79.2094 162.258 79.518 162.557C79.8147 162.854 80.2006 163.037 80.6757 163.106C81.2934 163.194 81.8238 163.089 82.267 162.789C82.7102 162.489 83.0678 162.067 83.3398 161.525C83.6 160.98 83.777 160.381 83.8709 159.728C83.9768 158.991 83.9766 158.276 83.8703 157.582C83.7623 156.9 83.5303 156.321 83.1744 155.845C82.8184 155.37 82.3257 155.087 81.6962 154.996Z" fill="#FF2323"/>
<path id="d_2" d="M73.319 152.449C74.0214 152.656 74.6039 153.014 75.0667 153.525C75.5261 154.048 75.8264 154.686 75.9676 155.441C76.0972 156.192 76.0319 157.011 75.7716 157.897C75.4944 158.841 75.0593 159.62 74.4663 160.234C73.8734 160.848 73.1822 161.264 72.3926 161.482C71.5916 161.697 70.7651 161.68 69.9131 161.43C69.5331 161.318 69.1741 161.156 68.8361 160.945C68.4832 160.741 68.2159 160.544 68.0344 160.353L67.3396 162.719C67.2855 162.903 67.2348 163.076 67.1875 163.237C67.1252 163.406 67.0488 163.603 66.9582 163.826C67.1688 163.876 67.3794 163.925 67.5901 163.974C67.7892 164.02 67.9941 164.068 68.2047 164.117L67.9917 164.843C67.4851 164.694 67.0868 164.602 66.797 164.567C66.5071 164.532 66.283 164.528 66.1245 164.557C65.9546 164.582 65.8174 164.623 65.7132 164.68L65.2123 164.533L68.5035 153.324C68.5576 153.14 68.6175 152.957 68.6831 152.777C68.7487 152.596 68.8268 152.394 68.9175 152.17C68.7068 152.121 68.5019 152.073 68.3028 152.027C68.0922 151.978 67.8816 151.928 67.6709 151.879L67.8839 151.154L70.3537 151.879C70.3199 152.207 70.2723 152.518 70.2109 152.812C70.638 152.55 71.1198 152.379 71.6561 152.299C72.189 152.23 72.7433 152.28 73.319 152.449ZM72.4488 153.113C72.0688 153.002 71.6568 152.999 71.2126 153.107C70.7569 153.21 70.355 153.386 70.007 153.634C69.978 153.776 69.9415 153.922 69.8975 154.071C69.8502 154.232 69.7995 154.405 69.7454 154.589L68.2676 159.558C68.4831 159.847 68.7443 160.086 69.0511 160.276C69.3431 160.474 69.6618 160.624 70.0072 160.726C70.5829 160.895 71.1328 160.875 71.6568 160.666C72.1809 160.457 72.6402 160.086 73.0348 159.551C73.4293 159.017 73.7334 158.343 73.9471 157.53C74.1303 156.821 74.2051 156.161 74.1717 155.551C74.1267 154.938 73.9673 154.416 73.6935 153.985C73.4049 153.563 72.9899 153.272 72.4488 153.113Z" fill="#FF2323"/>
<path id="a_3" d="M62.5229 148.592C62.4709 148.793 62.4179 148.967 62.364 149.113C62.3101 149.26 62.2592 149.415 62.2113 149.578C62.7519 149.376 63.2904 149.266 63.8267 149.247C64.3471 149.234 64.8475 149.337 65.3277 149.557C66.1573 149.936 66.6893 150.403 66.9237 150.958C67.1531 151.525 67.1432 152.081 66.8939 152.627C66.6646 153.129 66.3149 153.49 65.8448 153.711C65.3587 153.937 64.8177 154.053 64.2219 154.058C63.6101 154.069 62.99 153.997 62.3616 153.842C61.7173 153.693 61.1248 153.488 60.584 153.228L60.1204 154.243C59.9459 154.625 59.8142 155 59.7251 155.368C59.6361 155.737 59.6509 156.08 59.7695 156.398C59.8881 156.716 60.1851 156.99 60.6604 157.22C60.9719 157.376 61.3268 157.465 61.725 157.489C62.1123 157.507 62.4546 157.393 62.752 157.147C62.7046 157.019 62.6974 156.891 62.7304 156.761C62.7475 156.637 62.7784 156.525 62.8233 156.427C62.8831 156.296 63.0075 156.168 63.1964 156.044C63.3803 155.93 63.6063 155.94 63.8742 156.076C64.1034 156.181 64.2431 156.337 64.2934 156.545C64.3387 156.763 64.3115 156.982 64.2118 157.2C64.0423 157.571 63.7538 157.842 63.3464 158.012C62.928 158.177 62.4333 158.234 61.8623 158.185C61.2914 158.135 60.6948 157.968 60.0726 157.684C59.1557 157.265 58.5911 156.711 58.3788 156.02C58.1615 155.34 58.2976 154.479 58.7871 153.436C59.0662 152.825 59.3533 152.211 59.6484 151.593C59.9276 150.982 60.2067 150.371 60.4859 149.76C60.5656 149.585 60.6509 149.413 60.7415 149.243C60.8322 149.074 60.9383 148.885 61.0598 148.676C60.8584 148.597 60.6624 148.521 60.4718 148.447C60.2703 148.368 60.0689 148.29 59.8674 148.211L60.1815 147.523L62.5229 148.592ZM60.8382 152.671C61.2144 152.83 61.6298 152.96 62.0844 153.062C62.5232 153.17 62.9546 153.222 63.3787 153.218C63.7919 153.209 64.1699 153.117 64.5128 152.944C64.8399 152.777 65.0852 152.5 65.2487 152.113C65.4113 151.699 65.4199 151.334 65.2745 151.017C65.1132 150.705 64.8633 150.473 64.5249 150.318C64.0774 150.114 63.6525 150.019 63.2503 150.033C62.8321 150.053 62.3895 150.141 61.9225 150.297C61.8786 150.422 61.8242 150.556 61.7594 150.697C61.6946 150.839 61.6273 150.987 61.5575 151.14C61.5326 151.194 61.4528 151.369 61.3182 151.663C61.1727 151.953 61.0127 152.289 60.8382 152.671Z" fill="#FF2323"/>
<path id="y_2" d="M60.8214 142.123C61.1344 142.324 61.3533 142.572 61.478 142.866C61.6028 143.16 61.5646 143.464 61.3635 143.777C61.2467 143.958 61.0791 144.086 60.8607 144.16C60.6422 144.233 60.4371 144.208 60.2453 144.085C59.9965 143.939 59.8836 143.76 59.9067 143.547C59.9196 143.327 59.965 143.156 60.0429 143.035C60.0623 143.005 60.0818 142.974 60.1013 142.944C60.1272 142.904 60.1582 142.867 60.1943 142.833C60.177 142.793 60.1279 142.747 60.0472 142.695C59.926 142.617 59.7623 142.584 59.5561 142.594C59.3499 142.604 59.1297 142.669 58.8954 142.79C58.6214 142.927 58.2559 143.163 57.7988 143.497C57.3316 143.824 56.7891 144.225 56.1713 144.698L55.2832 151.274C55.1824 152.008 55.0855 152.58 54.9925 152.991C54.8895 153.395 54.8062 153.691 54.7428 153.879L55.4891 154.316L55.0901 154.937L51.9556 152.922L52.2476 152.468L52.3081 152.507C52.7516 152.749 53.0876 152.737 53.3161 152.47C53.5381 152.213 53.701 151.705 53.8047 150.944L54.4757 146.004C53.8283 146.501 53.1974 146.995 52.5832 147.484C51.9625 147.984 51.345 148.479 50.7308 148.968C50.5073 149.139 50.2806 149.314 50.0506 149.494C49.804 149.678 49.582 149.835 49.3844 149.965C49.1703 150.098 49.0117 150.167 48.9086 150.172L49.9924 150.783L49.5934 151.404L47.216 149.876L47.5079 149.422C47.9723 149.521 48.4074 149.465 48.8133 149.255C49.2026 149.049 49.6586 148.75 50.1813 148.358L55.4704 144.29C56.3182 143.637 57.0565 143.098 57.6851 142.675C58.3203 142.242 58.8866 141.971 59.3841 141.863C59.888 141.744 60.3672 141.831 60.8214 142.123Z" fill="#FF2323"/>
<path id="&#39;_2" d="M43.7501 146.676L41.2203 149.842L40.0776 148.852L42.8522 145.898L43.7501 146.676Z" fill="#FF2323"/>
<path id="s_4" d="M42.6427 132.723C43.0356 133.176 43.3219 133.635 43.5014 134.099C43.6899 134.555 43.8054 134.963 43.8477 135.323L44.2766 134.856L44.7717 135.427L42.5026 137.536L42.1372 137.115C42.4933 136.774 42.7385 136.379 42.8728 135.93C42.9979 135.488 43.0125 135.046 42.9164 134.606C42.8203 134.165 42.623 133.772 42.3244 133.428C42.12 133.192 41.8834 132.992 41.6144 132.828C41.3363 132.672 41.0534 132.584 40.7656 132.563C40.4688 132.55 40.1979 132.65 39.9531 132.862C39.6991 133.082 39.5573 133.34 39.5277 133.636C39.4811 133.93 39.5004 134.255 39.5856 134.61C39.6708 134.965 39.7808 135.33 39.9156 135.705C40.0848 136.194 40.245 136.69 40.3961 137.194C40.5303 137.697 40.5635 138.185 40.4957 138.656C40.4189 139.136 40.1538 139.572 39.7003 139.965C39.5099 140.13 39.2698 140.274 38.9802 140.398C38.6907 140.522 38.3714 140.584 38.0226 140.585C37.6647 140.593 37.2926 140.503 36.9063 140.314C36.511 140.132 36.1129 139.81 35.7121 139.348C35.5 139.103 35.305 138.795 35.1273 138.425C34.9496 138.055 34.8523 137.632 34.8354 137.154L34.3421 137.629L33.847 137.058L36.2276 134.995L36.6048 135.43C36.3031 135.723 36.0622 136.059 35.882 136.438C35.6927 136.824 35.609 137.222 35.6307 137.632C35.6433 138.05 35.8186 138.454 36.1565 138.843C36.518 139.261 36.9052 139.497 37.3181 139.552C37.731 139.607 38.0735 139.517 38.3456 139.281C38.6267 139.037 38.7878 138.747 38.829 138.409C38.8532 138.071 38.8115 137.702 38.704 137.303C38.5964 136.904 38.4686 136.491 38.3205 136.063C38.167 135.593 38.0349 135.12 37.9243 134.644C37.8137 134.168 37.7996 133.712 37.8818 133.276C37.955 132.847 38.1957 132.456 38.6038 132.102C39.0572 131.709 39.5357 131.501 40.0393 131.478C40.5351 131.445 41.0081 131.551 41.4585 131.796C41.9101 132.024 42.3048 132.333 42.6427 132.723Z" fill="#FF2323"/>
<path id="s_5" d="M32.9141 117.419C33.1634 117.965 33.3088 118.485 33.3504 118.981C33.4029 119.471 33.3987 119.895 33.3377 120.253L33.8809 119.926L34.1949 120.613L31.4236 121.998L31.1918 121.49C31.6294 121.264 31.9759 120.954 32.2314 120.56C32.4761 120.172 32.6143 119.752 32.6463 119.302C32.6783 118.852 32.5996 118.42 32.4101 118.005C32.2805 117.721 32.1098 117.463 31.8978 117.23C31.6749 117.002 31.4284 116.838 31.158 116.737C30.8768 116.641 30.5888 116.66 30.2941 116.795C29.9885 116.934 29.7798 117.142 29.6681 117.417C29.5404 117.687 29.4675 118.003 29.4493 118.368C29.4311 118.732 29.4337 119.114 29.4573 119.512C29.482 120.028 29.4958 120.55 29.4988 121.076C29.4858 121.597 29.3804 122.073 29.1825 122.507C28.9737 122.945 28.5965 123.289 28.0507 123.538C27.8214 123.643 27.5505 123.714 27.2377 123.751C26.9249 123.788 26.6011 123.758 26.2662 123.661C25.9205 123.568 25.5889 123.376 25.2716 123.086C24.9434 122.8 24.6521 122.379 24.3979 121.823C24.2633 121.528 24.1629 121.178 24.0966 120.773C24.0303 120.368 24.0564 119.934 24.1747 119.471L23.5675 119.788L23.2534 119.1L26.1188 117.791L26.3581 118.315C25.986 118.512 25.6602 118.766 25.3807 119.078C25.0903 119.396 24.8977 119.754 24.8031 120.153C24.6976 120.558 24.752 120.995 24.9663 121.464C25.1956 121.966 25.5006 122.302 25.8813 122.471C26.2619 122.64 26.616 122.65 26.9435 122.5C27.2819 122.346 27.5183 122.112 27.6528 121.8C27.7714 121.482 27.8353 121.117 27.8445 120.704C27.8537 120.291 27.8475 119.858 27.8259 119.406C27.8111 118.912 27.8177 118.421 27.8456 117.933C27.8735 117.445 27.9884 117.004 28.1903 116.608C28.3813 116.217 28.7224 115.91 29.2136 115.685C29.7594 115.436 30.2772 115.371 30.767 115.491C31.2519 115.599 31.6759 115.834 32.039 116.196C32.408 116.542 32.6998 116.949 32.9141 117.419Z" fill="#FF2323"/>
<path id="e_2" d="M29.7928 108.93C30.0261 109.724 30.0532 110.498 29.8741 111.251C29.6801 111.996 29.2975 112.652 28.7264 113.22C28.1437 113.792 27.3861 114.214 26.4534 114.488C25.6475 114.725 24.8409 114.768 24.0337 114.617C23.2232 114.455 22.5086 114.108 21.8899 113.577C21.2596 113.049 20.8177 112.353 20.5642 111.49C20.3748 110.845 20.3406 110.217 20.4614 109.606C20.5822 108.996 20.8791 108.452 21.352 107.975C21.8215 107.487 22.488 107.117 23.3516 106.863L25.2403 112.912C26.5678 112.535 27.5686 112.003 28.2427 111.317C28.9053 110.635 29.0878 109.787 28.7903 108.774C28.6855 108.417 28.5157 108.073 28.2809 107.742C28.0426 107.399 27.7668 107.099 27.4534 106.84C27.14 106.582 26.8221 106.394 26.4998 106.276L26.7235 105.76C27.2984 105.929 27.794 106.19 28.2103 106.543C28.6266 106.896 28.9657 107.284 29.2276 107.708C29.4895 108.131 29.6779 108.538 29.7928 108.93ZM24.4997 113.073L23.2065 108.669C22.792 108.791 22.4134 108.971 22.0706 109.209C21.713 109.439 21.4538 109.728 21.2931 110.075C21.121 110.426 21.1008 110.826 21.2327 111.275C21.4288 111.942 21.7942 112.442 22.3291 112.772C22.849 113.095 23.5725 113.195 24.4997 113.073Z" fill="#FF2323"/>
<path id="r_3" d="M27.4935 103.044C27.4406 102.676 27.3148 102.433 27.1161 102.316C26.9056 102.201 26.6382 102.155 26.3141 102.177C25.9781 102.201 25.5963 102.244 25.1687 102.305L21.1065 102.889C20.9165 102.917 20.7264 102.944 20.5364 102.971C20.3446 102.987 20.1452 102.991 19.9382 102.985C19.9808 103.197 20.0234 103.409 20.066 103.621C20.0951 103.823 20.1309 104.03 20.1735 104.242L19.443 104.347L19.3636 103.795C19.2902 103.284 19.1923 102.94 19.0699 102.764C18.934 102.577 18.7972 102.427 18.6597 102.314L18.5854 101.797C18.772 101.746 19.007 101.694 19.2904 101.641C19.5619 101.59 19.9105 101.528 20.3364 101.454C20.0139 101.319 19.6879 101.117 19.3584 100.849C19.0289 100.582 18.7418 100.271 18.4971 99.9184C18.2507 99.5538 18.0968 99.1577 18.0353 98.7301C17.9875 98.3975 18.0347 98.0937 18.177 97.8186C18.3194 97.5436 18.5865 97.3779 18.9785 97.3215C19.1329 97.2993 19.3272 97.3441 19.5615 97.4559C19.7941 97.5558 19.9275 97.767 19.9617 98.0894C19.9874 98.3524 19.9164 98.5748 19.7485 98.7565C19.5688 98.94 19.3457 99.0327 19.0793 99.0346C19.1204 99.4894 19.3584 99.9219 19.7932 100.332C20.228 100.743 20.7587 101.06 21.3851 101.285L25.7654 100.637C26.003 100.603 26.2177 100.578 26.4094 100.563C26.5876 100.537 26.7802 100.528 26.9872 100.534C26.948 100.346 26.9156 100.163 26.89 99.9847C26.8508 99.7964 26.8116 99.608 26.7724 99.4197L27.5029 99.3147L28.028 102.967L27.4935 103.044Z" fill="#FF2323"/>
<path id="i_3" d="M25.46 92.7392C25.46 92.3672 25.37 92.1092 25.19 91.9652C24.998 91.8212 24.74 91.7372 24.416 91.7132C24.08 91.6892 23.696 91.6772 23.264 91.6772H19.16C18.968 91.6772 18.788 91.6712 18.62 91.6592C18.44 91.6472 18.23 91.6292 17.99 91.6052C18.002 91.8212 18.014 92.0372 18.026 92.2532C18.038 92.4572 18.05 92.6672 18.062 92.8832H17.306C17.306 92.3552 17.282 91.9472 17.234 91.6592C17.186 91.3712 17.126 91.1552 17.054 91.0112C16.982 90.8552 16.904 90.7352 16.82 90.6512V90.1292H24.092C24.332 90.1292 24.548 90.1352 24.74 90.1472C24.92 90.1472 25.112 90.1652 25.316 90.2012C25.304 90.0092 25.298 89.8232 25.298 89.6432C25.286 89.4512 25.274 89.2592 25.262 89.0672H26V92.7392H25.46ZM15.038 90.9932C15.038 91.2452 14.936 91.4672 14.732 91.6592C14.528 91.8512 14.276 91.9472 13.976 91.9472C13.676 91.9472 13.424 91.8512 13.22 91.6592C13.004 91.4552 12.896 91.2272 12.896 90.9752C12.896 90.6992 13.004 90.4712 13.22 90.2912C13.424 90.0992 13.676 90.0032 13.976 90.0032C14.276 90.0032 14.528 90.1052 14.732 90.3092C14.936 90.5012 15.038 90.7292 15.038 90.9932Z" fill="#FF2323"/>
<path id="f_2" d="M18.275 81.4498C16.9566 81.2603 15.9514 80.8733 15.2596 80.2889C14.5694 79.6926 14.3089 78.8065 14.4779 77.6306C14.5155 77.3693 14.6023 77.1029 14.7383 76.8315C14.8641 76.5465 15.0434 76.3116 15.2761 76.1269C15.4968 75.9404 15.7616 75.8693 16.0705 75.9137C16.2962 75.9462 16.4768 76.0388 16.6124 76.1917C16.7498 76.3327 16.8014 76.522 16.7672 76.7595C16.7381 77.0463 16.6259 77.2363 16.4307 77.3294C16.2253 77.409 16.0572 77.4394 15.9266 77.4206C15.8553 77.4104 15.7849 77.3942 15.7153 77.372C15.6458 77.3499 15.572 77.3151 15.4939 77.2675C15.3751 77.3353 15.2808 77.4429 15.2111 77.5905C15.1431 77.7262 15.0997 77.8594 15.0809 77.9901C15.028 78.3583 15.0939 78.6587 15.2787 78.8914C15.4634 79.124 15.7102 79.305 16.0189 79.4342C16.3277 79.5635 16.6543 79.6529 16.9987 79.7024L18.8695 79.9714L19.2153 77.5661L19.9102 77.666L19.6178 80.079L25.8919 80.9629C26.1294 80.997 26.3424 81.0337 26.5307 81.0729C26.7089 81.0985 26.8964 81.1437 27.0932 81.2083C27.1086 81.0166 27.1291 80.8316 27.1548 80.6535C27.1702 80.4617 27.1857 80.2699 27.2011 80.0782L27.9316 80.1832L27.409 83.8178L26.8745 83.741C26.9275 83.3728 26.8751 83.1046 26.7174 82.9364C26.5479 82.7666 26.3044 82.6467 25.9872 82.5769C25.658 82.5053 25.2796 82.4388 24.852 82.3773L19.4153 81.6138L19.2409 83.0799L18.4391 82.9646L18.6492 81.5036L18.275 81.4498Z" fill="#FF2323"/>
<path id="i_4" d="M31.5699 66.0105C31.7244 65.6721 31.7497 65.4001 31.6458 65.1943C31.531 64.9836 31.3312 64.8 31.0464 64.6435C30.7508 64.4821 30.4065 64.3117 30.0135 64.1322L26.2804 62.4274C26.1057 62.3476 25.9445 62.2674 25.7967 62.1867C25.6379 62.101 25.4544 61.9974 25.246 61.8758C25.1672 62.0773 25.0884 62.2788 25.0096 62.4802C24.9357 62.6708 24.8594 62.8668 24.7806 63.0683L24.0929 62.7542C24.3123 62.2739 24.4599 61.8928 24.5359 61.6109C24.6119 61.329 24.647 61.1076 24.6414 60.9467C24.6407 60.7749 24.6196 60.6333 24.5781 60.522L24.7949 60.0472L31.4097 63.0681C31.6281 63.1678 31.822 63.263 31.9917 63.3537C32.1554 63.4284 32.3226 63.5246 32.4932 63.6421C32.5621 63.4624 32.6339 63.2907 32.7087 63.127C32.7775 62.9474 32.8463 62.7677 32.9152 62.5881L33.5865 62.8947L32.0611 66.2348L31.5699 66.0105ZM22.815 60.0928C22.7103 60.3221 22.5253 60.4816 22.26 60.5715C21.9947 60.6614 21.7256 60.6441 21.4527 60.5195C21.1798 60.3948 20.9904 60.2028 20.8846 59.9434C20.7729 59.6681 20.7694 59.4159 20.8741 59.1867C20.9887 58.9356 21.1817 58.7731 21.4529 58.6991C21.7183 58.6092 21.9874 58.6265 22.2603 58.7511C22.5331 58.8758 22.72 59.0732 22.8208 59.3435C22.9266 59.6029 22.9247 59.8527 22.815 60.0928Z" fill="#FF2323"/>
<path id="s_6" d="M37.5731 56.5282C37.2487 57.033 36.8893 57.4368 36.495 57.7396C36.1107 58.049 35.7517 58.2747 35.4179 58.4168L35.9868 58.6969L35.5781 59.3328L32.9152 57.7499L33.2168 57.2805C33.6437 57.5263 34.0918 57.6502 34.5612 57.6523C35.0205 57.6479 35.448 57.5376 35.8438 57.3212C36.2397 57.1048 36.5608 56.8049 36.8074 56.4212C36.976 56.1588 37.1011 55.8754 37.1825 55.5711C37.2539 55.2604 37.2589 54.964 37.1975 54.6821C37.1261 54.3937 36.9541 54.1619 36.6816 53.9868C36.3989 53.8051 36.1116 53.7417 35.8196 53.7965C35.524 53.8348 35.2179 53.9448 34.9014 54.1265C34.5849 54.3083 34.2655 54.5167 33.9433 54.7518C33.5222 55.0518 33.0911 55.3453 32.6499 55.6323C32.2051 55.9028 31.7469 56.0719 31.2754 56.1397C30.7937 56.2011 30.3005 56.0696 29.7958 55.7452C29.5838 55.6089 29.3776 55.4193 29.1771 55.1764C28.9766 54.9334 28.827 54.6447 28.7281 54.3102C28.6192 53.9691 28.6011 53.5866 28.6739 53.1627C28.7366 52.7322 28.9333 52.2596 29.2642 51.7447C29.4394 51.4722 29.6794 51.1985 29.9844 50.9238C30.2893 50.649 30.6686 50.4363 31.1221 50.2855L30.5272 49.946L30.9359 49.31L33.5858 51.013L33.2744 51.4976C32.9081 51.2907 32.5181 51.1541 32.1042 51.0879C31.6802 51.0151 31.2747 51.0469 30.8875 51.1832C30.4902 51.313 30.1521 51.595 29.8731 52.0291C29.5747 52.4935 29.4573 52.9315 29.5208 53.3432C29.5843 53.7549 29.7674 54.058 30.0703 54.2527C30.3832 54.4538 30.7073 54.5265 31.0426 54.471C31.3743 54.3988 31.7164 54.2549 32.0689 54.0393C32.4214 53.8237 32.7819 53.5846 33.1503 53.3221C33.5584 53.0423 33.9751 52.7823 34.4004 52.5422C34.8258 52.302 35.2595 52.1599 35.7014 52.1159C36.1333 52.0653 36.5764 52.1861 37.0307 52.478C37.5354 52.8024 37.87 53.2029 38.0345 53.6794C38.2054 54.1459 38.2369 54.6297 38.1288 55.1308C38.0373 55.6283 37.8521 56.0941 37.5731 56.5282Z" fill="#FF2323"/>
<path id="L_2" d="M44.2487 46.3324L43.8597 45.8834C44.1886 45.5667 44.3576 45.2853 44.3667 45.0392C44.3679 44.7841 44.267 44.5302 44.0639 44.2775C43.862 44.0078 43.6235 43.7143 43.3484 43.3969L38.2563 37.5202C37.9262 37.1393 37.6569 36.801 37.4484 36.5054C37.293 36.6559 37.1376 36.8064 36.9822 36.9569C36.8268 37.1074 36.6714 37.258 36.5161 37.4085L35.9974 36.8099L39.0582 34.1577L39.4472 34.6066C39.1195 34.9065 38.9505 35.1879 38.9402 35.4509C38.939 35.706 39.0354 35.9638 39.2294 36.2244C39.4325 36.4771 39.6755 36.7667 39.9584 37.0932L45.0152 42.9291C45.4239 43.4007 45.7167 43.7662 45.8939 44.0255L48.4023 41.7805C48.9658 41.2763 49.2394 40.7217 49.2232 40.1165C49.216 39.5035 48.8666 38.798 48.1751 37.9999L48.6376 37.5991L50.996 40.4858L44.2487 46.3324Z" fill="#FF2323"/>
<path id="o_4" d="M56.5472 37.6461C55.8406 38.1003 55.0957 38.3507 54.3127 38.3975C53.5232 38.4341 52.7719 38.275 52.0589 37.9202C51.3495 37.5488 50.7547 36.9895 50.2746 36.2425C49.7621 35.445 49.468 34.6212 49.3925 33.7711C49.3169 32.921 49.45 32.1294 49.7919 31.3962C50.1272 30.6529 50.6533 30.0509 51.37 29.5903C52.0767 29.1361 52.828 28.8958 53.624 28.8692C54.4135 28.8325 55.1648 28.9916 55.8778 29.3465C56.5909 29.7013 57.1842 30.2472 57.6578 30.9841C58.1573 31.7615 58.4431 32.5834 58.5151 33.4501C58.5907 34.3002 58.4608 35.0969 58.1254 35.8402C57.79 36.5835 57.264 37.1855 56.5472 37.6461ZM56.2791 36.9626C56.8141 36.6187 57.1408 36.1948 57.2591 35.6908C57.3774 35.1869 57.3465 34.6504 57.1663 34.0815C56.9963 33.5061 56.7393 32.9509 56.3955 32.4159C56.1035 31.9616 55.7726 31.5466 55.4028 31.1709C55.0366 30.7786 54.6491 30.4642 54.2403 30.2277C53.825 29.981 53.4029 29.8458 52.9739 29.8219C52.555 29.7916 52.1436 29.9062 51.7398 30.1657C51.2149 30.503 50.8832 30.9302 50.7447 31.4471C50.6062 31.9641 50.6119 32.5167 50.7617 33.1051C50.9217 33.687 51.1801 34.2555 51.537 34.8108C51.9392 35.4367 52.4078 35.9771 52.9427 36.4322C53.4711 36.8771 54.0256 37.1627 54.6059 37.2889C55.1863 37.4152 55.7441 37.3064 56.2791 36.9626Z" fill="#FF2323"/>
<path id="r_4" d="M61.7819 33.631C62.1203 33.4765 62.3176 33.2875 62.3738 33.0639C62.425 32.8294 62.3943 32.5599 62.2815 32.2552C62.1638 31.9396 62.0151 31.5853 61.8357 31.1923L60.1308 27.4592C60.0511 27.2845 59.9713 27.1099 59.8915 26.9352C59.8227 26.7556 59.7623 26.5655 59.7103 26.365C59.5188 26.4657 59.3273 26.5663 59.1358 26.667C58.9502 26.7517 58.7617 26.8444 58.5702 26.945L58.2636 26.2737L58.7712 26.0419C59.2406 25.8276 59.5426 25.6369 59.6774 25.4698C59.8181 25.2868 59.9236 25.1133 59.9938 24.9493L60.4686 24.7325C60.5702 24.8971 60.6863 25.108 60.8168 25.365C60.9424 25.611 61.1004 25.9281 61.2908 26.316C61.3299 25.9684 61.4315 25.5987 61.5957 25.2072C61.7598 24.8156 61.9767 24.4527 62.2462 24.1185C62.5267 23.7794 62.8634 23.5201 63.2564 23.3406C63.562 23.201 63.8668 23.1608 64.1708 23.2198C64.4748 23.2789 64.7091 23.4885 64.8736 23.8487C64.9384 23.9906 64.9501 24.1897 64.9089 24.446C64.8785 24.6973 64.7135 24.8848 64.4138 25.0085C64.1687 25.1073 63.9353 25.1017 63.7136 24.9919C63.487 24.8711 63.3352 24.6832 63.2583 24.4281C62.8335 24.5957 62.4855 24.9459 62.2144 25.4787C61.9432 26.0115 61.7878 26.6101 61.7483 27.2746L63.6041 31.295C63.7038 31.5133 63.7881 31.7122 63.857 31.8919C63.9317 32.0556 63.9951 32.2377 64.0471 32.4383C64.2168 32.3476 64.3835 32.2649 64.5472 32.1901C64.7169 32.0994 64.8865 32.0087 65.0562 31.9181L65.3628 32.5894L62.0062 34.1223L61.7819 33.631Z" fill="#FF2323"/>
<path id="a_4" d="M74.9635 29.2463C74.8715 29.0607 74.7978 28.8947 74.7423 28.7484C74.6868 28.6021 74.6239 28.4517 74.5536 28.2973C74.277 28.8037 73.9423 29.2397 73.5494 29.6052C73.1646 29.9558 72.7188 30.2055 72.2122 30.3543C71.3372 30.6112 70.6292 30.6065 70.0882 30.3401C69.5439 30.0622 69.1872 29.6354 69.0181 29.0597C68.8626 28.5301 68.8903 28.0279 69.1011 27.5533C69.32 27.0638 69.6531 26.6221 70.1002 26.2281C70.5555 25.8193 71.0713 25.4678 71.6478 25.1734C72.2323 24.8642 72.8141 24.6308 73.3932 24.4733L73.0788 23.4025C72.9605 22.9995 72.8144 22.6297 72.6405 22.2931C72.4666 21.9564 72.2307 21.7068 71.9328 21.5441C71.6349 21.3814 71.231 21.3687 70.721 21.506C70.3837 21.5925 70.0569 21.7573 69.7405 22.0002C69.4357 22.2398 69.2517 22.5502 69.1885 22.9315C69.3077 22.9965 69.3974 23.089 69.4576 23.2089C69.5259 23.3139 69.5753 23.4182 69.6057 23.5218C69.6463 23.66 69.6361 23.8381 69.575 24.0561C69.5106 24.2626 69.3328 24.4024 69.0415 24.4754C68.7997 24.5464 68.5919 24.5199 68.4179 24.3959C68.2405 24.2604 68.118 24.0775 68.0504 23.8472C67.9355 23.4557 67.9763 23.0623 68.1728 22.6669C68.3809 22.2681 68.717 21.9006 69.181 21.5642C69.645 21.2278 70.2052 20.9633 70.8615 20.7706C71.8287 20.4866 72.6186 20.5361 73.2313 20.919C73.8406 21.2903 74.3018 22.0304 74.6148 23.1391C74.8041 23.7839 74.9894 24.4361 75.1706 25.0958C75.3599 25.7406 75.5492 26.3854 75.7386 27.0301C75.7926 27.2144 75.841 27.4003 75.8836 27.5879C75.9261 27.7755 75.9697 27.9878 76.0143 28.2248C76.2182 28.1525 76.4163 28.0818 76.6087 28.0128C76.8125 27.9404 77.0164 27.8681 77.2203 27.7957L77.4333 28.5211L74.9635 29.2463ZM73.5656 25.0605C73.1775 25.187 72.7783 25.3605 72.3678 25.5811C71.9654 25.7868 71.6054 26.0301 71.2877 26.311C70.9814 26.5885 70.7554 26.905 70.6097 27.2604C70.4721 27.601 70.4682 27.9711 70.598 28.3707C70.7461 28.7899 70.979 29.0718 71.2965 29.2162C71.6222 29.3456 71.9635 29.358 72.3204 29.2532C72.7925 29.1146 73.1759 28.9082 73.4706 28.6341C73.7734 28.345 74.0502 27.9886 74.301 27.5648C74.2523 27.4415 74.2059 27.3051 74.162 27.1554C74.118 27.0057 74.0724 26.8503 74.0251 26.6891C74.0082 26.6315 73.9541 26.4473 73.8628 26.1364C73.783 25.8221 73.684 25.4635 73.5656 25.0605Z" fill="#FF2323"/>
<path id="._2" d="M81.9141 28.1784C81.6409 28.2177 81.382 28.1458 81.1375 27.9628C80.9031 27.7661 80.7629 27.5074 80.7168 27.1867C80.6706 26.866 80.7383 26.5775 80.9196 26.3211C81.101 26.0646 81.3282 25.9168 81.6014 25.8775C81.8984 25.8348 82.1581 25.9126 82.3806 26.111C82.615 26.3076 82.7552 26.5663 82.8013 26.887C82.8474 27.2077 82.7798 27.4963 82.5985 27.7527C82.4154 27.9972 82.1873 28.1392 81.9141 28.1784Z" fill="#FF2323"/>
</g>
</svg>
